M48
; DRILL file {KiCad 8.0.4-8.0.4-0~ubuntu22.04.1} date 2024-07-27T17:17:04+0900
; FORMAT={-:-/ absolute / inch / decimal}
; #@! TF.CreationDate,2024-07-27T17:17:04+09:00
; #@! TF.GenerationSoftware,Kicad,Pcbnew,8.0.4-8.0.4-0~ubuntu22.04.1
; #@! TF.FileFunction,Plated,1,2,PTH
FMAT,2
INCH
; #@! TA.AperFunction,Plated,PTH,ViaDrill
T1C0.0118
; #@! TA.AperFunction,Plated,PTH,ComponentDrill
T2C0.0256
; #@! TA.AperFunction,Plated,PTH,ComponentDrill
T3C0.0276
; #@! TA.AperFunction,Plated,PTH,ComponentDrill
T4C0.0300
; #@! TA.AperFunction,Plated,PTH,ComponentDrill
T5C0.0315
; #@! TA.AperFunction,Plated,PTH,ComponentDrill
T6C0.0354
; #@! TA.AperFunction,Plated,PTH,ComponentDrill
T7C0.0374
; #@! TA.AperFunction,Plated,PTH,ComponentDrill
T8C0.0394
; #@! TA.AperFunction,Plated,PTH,ComponentDrill
T9C0.0669
; #@! TA.AperFunction,Plated,PTH,ViaDrill
T10C0.1260
%
G90
G05
T1
X4.1486Y-4.4514
X4.1732Y-4.1339
X4.1732Y-4.2323
X4.1732Y-4.4291
X4.5669Y-2.6575
X4.5669Y-3.8386
X4.7638Y-2.9528
X4.8031Y-3.0315
X4.9345Y-3.1363
X4.9815Y-4.4083
X5.0Y-3.3858
X5.0Y-3.7795
X5.0Y-3.8583
X5.0394Y-3.3465
X5.0935Y-3.7008
X5.1181Y-3.3504
X5.1181Y-4.5276
X5.1575Y-3.3858
X5.1575Y-4.5669
X5.1969Y-3.189
X5.1969Y-3.7402
X5.315Y-3.5039
X5.315Y-3.622
X5.3445Y-3.3418
X5.3543Y-4.0157
X5.3543Y-4.3307
X5.3907Y-3.2677
X5.3937Y-3.1496
X5.3937Y-3.4252
X5.3937Y-4.3701
X5.3937Y-4.5276
X5.3937Y-4.6555
X5.4331Y-4.3307
X5.4331Y-4.5276
X5.4577Y-3.7201
X5.4724Y-2.9134
X5.4724Y-3.0709
X5.4724Y-3.8976
X5.5118Y-2.8346
X5.5118Y-3.0315
X5.5118Y-3.3465
X5.5118Y-4.5669
X5.5512Y-2.4016
X5.5512Y-3.6614
X5.5512Y-3.7008
X5.5512Y-3.8189
X5.5906Y-3.7402
X5.5956Y-3.4277
X5.6299Y-3.1102
X5.6693Y-3.6614
X5.6693Y-3.7402
X5.6693Y-3.8976
X5.748Y-4.0157
X5.7874Y-3.6614
X5.7874Y-3.7402
X5.7874Y-4.0945
X5.8169Y-3.8976
X5.8661Y-2.4409
X5.8661Y-3.189
X5.9055Y-2.5197
X5.9055Y-2.5984
X5.9449Y-3.622
X5.9843Y-2.6772
X5.9843Y-3.189
X5.9843Y-3.5827
X6.0433Y-2.8543
X6.0433Y-3.0512
X6.0502Y-3.248
X6.1024Y-3.622
X6.1024Y-3.7008
X6.2402Y-3.248
X6.2402Y-4.2323
X6.2598Y-2.5197
X6.2598Y-2.7953
X6.3386Y-2.6378
X6.378Y-3.2776
X6.378Y-3.622
X6.378Y-3.6614
X6.378Y-4.1732
X6.437Y-3.248
X6.437Y-4.3307
X6.4567Y-3.3071
X6.5748Y-2.874
X6.6535Y-2.874
X6.7323Y-2.9528
T2
X4.5551Y-3.3957
X4.5551Y-3.4457
X4.5551Y-3.4957
X4.7185Y-3.3957
X4.7185Y-3.4457
X4.7185Y-3.4957
X4.8819Y-3.3957
X4.8819Y-3.4457
X4.8819Y-3.4957
X6.5157Y-3.3858
X6.5157Y-3.4358
X6.5157Y-3.4858
X6.6732Y-3.3858
X6.6732Y-3.4358
X6.6732Y-3.4858
X6.8307Y-3.3858
X6.8307Y-3.4358
X6.8307Y-3.4858
T3
X4.2488Y-4.4882
X4.2685Y-2.4016
X4.4488Y-4.4882
X4.4685Y-2.4016
X4.5669Y-2.4016
X4.5669Y-4.4882
X4.7669Y-2.4016
X4.7669Y-4.4882
X5.0591Y-2.3622
X5.0591Y-2.6622
X6.3386Y-2.3591
X6.3386Y-2.5591
X6.611Y-4.4882
X6.6307Y-2.4016
X6.811Y-4.4882
X6.8307Y-2.4016
X6.926Y-4.4882
X6.9291Y-2.4016
X7.126Y-4.4882
X7.1291Y-2.4016
T4
X4.1732Y-2.5591
X4.1732Y-3.1496
X4.1732Y-3.7402
X4.1732Y-4.3307
X4.2717Y-2.5591
X4.2717Y-3.1496
X4.2717Y-3.7402
X4.2717Y-4.3307
X4.3701Y-2.5591
X4.3701Y-3.1496
X4.3701Y-3.7402
X4.3701Y-4.3307
X4.4685Y-2.5591
X4.4685Y-3.1496
X4.4685Y-3.7402
X4.4685Y-4.3307
X4.5669Y-2.5591
X4.5669Y-3.1496
X4.5669Y-3.7402
X4.5669Y-4.3307
X4.6654Y-2.5591
X4.6654Y-3.1496
X4.6654Y-3.7402
X4.6654Y-4.3307
X4.7638Y-2.5591
X4.7638Y-3.1496
X4.7638Y-3.7402
X4.7638Y-4.3307
X4.8622Y-2.5591
X4.8622Y-3.1496
X4.8622Y-3.7402
X4.8622Y-4.3307
X5.5512Y-3.3071
X5.5512Y-3.4055
X5.5512Y-3.5039
X5.5512Y-3.6024
X5.8465Y-3.3071
X5.8465Y-3.4055
X5.8465Y-3.5039
X5.8465Y-3.6024
X6.3386Y-2.9528
X6.3386Y-3.0512
X6.3386Y-3.1496
X6.5354Y-2.5591
X6.5354Y-3.1496
X6.5354Y-3.7402
X6.5354Y-4.3307
X6.6339Y-2.5591
X6.6339Y-3.1496
X6.6339Y-3.7402
X6.6339Y-4.3307
X6.7323Y-2.5591
X6.7323Y-3.1496
X6.7323Y-3.7402
X6.7323Y-4.3307
X6.8307Y-2.5591
X6.8307Y-3.1496
X6.8307Y-3.7402
X6.8307Y-4.3307
X6.9291Y-2.5591
X6.9291Y-3.1496
X6.9291Y-3.7402
X6.9291Y-4.3307
X7.0276Y-2.5591
X7.0276Y-3.1496
X7.0276Y-3.7402
X7.0276Y-4.3307
X7.126Y-2.5591
X7.126Y-3.1496
X7.126Y-3.7402
X7.126Y-4.3307
X7.2244Y-2.5591
X7.2244Y-3.1496
X7.2244Y-3.7402
X7.2244Y-4.3307
T5
X5.0591Y-2.8543
X5.0591Y-2.9528
X5.2558Y-4.2621
X5.2558Y-4.3621
X5.2558Y-4.4621
X5.2559Y-2.3622
X5.2559Y-2.4622
X5.2559Y-2.5622
X5.2559Y-2.6622
X5.2559Y-2.7622
X5.2559Y-2.8622
X5.2559Y-2.9622
X5.2559Y-3.0622
X5.2559Y-3.1622
X5.2559Y-3.2622
X5.2559Y-3.3622
X5.2559Y-3.4622
X5.2559Y-3.5622
X5.2559Y-3.6622
X5.2559Y-3.7622
X5.2559Y-3.8622
X5.2559Y-3.9622
X5.2559Y-4.0622
X5.2559Y-4.1622
X6.1559Y-2.3622
X6.1559Y-2.4622
X6.1559Y-2.5622
X6.1559Y-2.6622
X6.1559Y-2.7622
X6.1559Y-2.8622
X6.1559Y-2.9622
X6.1559Y-3.0622
X6.1559Y-3.1622
X6.1559Y-3.2622
X6.1559Y-3.3622
X6.1559Y-3.4622
X6.1559Y-3.5622
X6.1559Y-3.6622
X6.1559Y-3.7622
X6.1559Y-3.8622
X6.1559Y-3.9622
X6.1559Y-4.0622
X6.1559Y-4.1622
X6.1559Y-4.2622
X6.1559Y-4.3622
X6.1559Y-4.4622
T6
X5.1077Y-2.1654
X5.2077Y-2.1654
X6.2008Y-2.1654
X6.3008Y-2.1654
T7
X4.3898Y-2.2047
X4.3898Y-4.685
X4.4882Y-2.2047
X4.4882Y-4.685
X4.5866Y-2.2047
X4.5866Y-4.685
X4.685Y-2.2047
X4.685Y-4.685
X4.7835Y-2.2047
X4.7835Y-4.685
X4.8819Y-2.2047
X4.8819Y-4.685
X6.535Y-2.2047
X6.5354Y-4.685
X6.6335Y-2.2047
X6.6339Y-4.685
X6.7319Y-2.2047
X6.7323Y-4.685
X6.8303Y-2.2047
X6.8307Y-4.685
X6.9287Y-2.2047
X6.9291Y-4.685
X7.0272Y-2.2047
X7.0276Y-4.685
T8
X5.6123Y-4.252
X5.7123Y-4.252
X5.8123Y-4.252
T9
X4.2224Y-3.3579
X4.2224Y-3.5138
X7.1654Y-3.3661
X7.1654Y-3.522
T10
X4.0945Y-2.1654
X4.0945Y-4.7244
X7.3228Y-2.1654
X7.3228Y-4.7244
M30
