%TF.GenerationSoftware,KiCad,Pcbnew,8.0.4-8.0.4-0~ubuntu22.04.1*%
%TF.CreationDate,2024-07-27T17:16:49+09:00*%
%TF.ProjectId,esp32s2s3dev_custom,65737033-3273-4327-9333-6465765f6375,rev?*%
%TF.SameCoordinates,Original*%
%TF.FileFunction,Soldermask,Top*%
%TF.FilePolarity,Negative*%
%FSLAX46Y46*%
G04 Gerber Fmt 4.6, Leading zero omitted, Abs format (unit mm)*
G04 Created by KiCad (PCBNEW 8.0.4-8.0.4-0~ubuntu22.04.1) date 2024-07-27 17:16:49*
%MOMM*%
%LPD*%
G01*
G04 APERTURE LIST*
G04 Aperture macros list*
%AMRoundRect*
0 Rectangle with rounded corners*
0 $1 Rounding radius*
0 $2 $3 $4 $5 $6 $7 $8 $9 X,Y pos of 4 corners*
0 Add a 4 corners polygon primitive as box body*
4,1,4,$2,$3,$4,$5,$6,$7,$8,$9,$2,$3,0*
0 Add four circle primitives for the rounded corners*
1,1,$1+$1,$2,$3*
1,1,$1+$1,$4,$5*
1,1,$1+$1,$6,$7*
1,1,$1+$1,$8,$9*
0 Add four rect primitives between the rounded corners*
20,1,$1+$1,$2,$3,$4,$5,0*
20,1,$1+$1,$4,$5,$6,$7,0*
20,1,$1+$1,$6,$7,$8,$9,0*
20,1,$1+$1,$8,$9,$2,$3,0*%
G04 Aperture macros list end*
%ADD10RoundRect,0.250000X-0.600000X-0.725000X0.600000X-0.725000X0.600000X0.725000X-0.600000X0.725000X0*%
%ADD11O,1.700000X1.950000*%
%ADD12RoundRect,0.250000X0.600000X0.725000X-0.600000X0.725000X-0.600000X-0.725000X0.600000X-0.725000X0*%
%ADD13C,1.524000*%
%ADD14R,1.524000X1.524000*%
%ADD15O,1.500000X2.300000*%
%ADD16R,1.500000X2.300000*%
%ADD17R,1.000000X1.000000*%
%ADD18O,1.000000X1.000000*%
%ADD19C,1.400000*%
%ADD20O,1.400000X1.400000*%
%ADD21RoundRect,0.250001X1.099999X-1.099999X1.099999X1.099999X-1.099999X1.099999X-1.099999X-1.099999X0*%
%ADD22C,2.700000*%
%ADD23RoundRect,0.250001X-1.099999X1.099999X-1.099999X-1.099999X1.099999X-1.099999X1.099999X1.099999X0*%
%ADD24C,1.800000*%
%ADD25R,1.800000X1.800000*%
%ADD26C,1.600000*%
%ADD27R,2.000000X1.200000*%
%ADD28O,2.000000X1.200000*%
G04 APERTURE END LIST*
D10*
%TO.C,M4*%
X166000000Y-119000000D03*
D11*
X168500000Y-119000000D03*
X171000000Y-119000000D03*
X173500000Y-119000000D03*
X176000000Y-119000000D03*
X178500000Y-119000000D03*
%TD*%
%TO.C,M3*%
X165989950Y-56000000D03*
X168489950Y-56000000D03*
X170989950Y-56000000D03*
X173489950Y-56000000D03*
X175989950Y-56000000D03*
D12*
X178489950Y-56000000D03*
%TD*%
D11*
%TO.C,M2*%
X111500000Y-56000000D03*
X114000000Y-56000000D03*
X116500000Y-56000000D03*
X119000000Y-56000000D03*
X121500000Y-56000000D03*
D12*
X124000000Y-56000000D03*
%TD*%
D11*
%TO.C,M1*%
X124000000Y-119000000D03*
X121500000Y-119000000D03*
X119000000Y-119000000D03*
X116500000Y-119000000D03*
X114000000Y-119000000D03*
D10*
X111500000Y-119000000D03*
%TD*%
D13*
%TO.C,U4*%
X161000000Y-75000000D03*
D14*
X161000000Y-77500000D03*
D13*
X161000000Y-80000000D03*
%TD*%
D15*
%TO.C,U3*%
X147633000Y-108000000D03*
X145093000Y-108000000D03*
D16*
X142553000Y-108000000D03*
%TD*%
D13*
%TO.C,U2*%
X148500000Y-84000000D03*
X148500000Y-86500000D03*
D14*
X148500000Y-89000000D03*
D13*
X148500000Y-91500000D03*
X141000000Y-84000000D03*
X141000000Y-86500000D03*
D14*
X141000000Y-89000000D03*
D13*
X141000000Y-91500000D03*
%TD*%
D17*
%TO.C,SRV6*%
X173500000Y-86000000D03*
D18*
X173500000Y-87270000D03*
X173500000Y-88540000D03*
%TD*%
D17*
%TO.C,SRV5*%
X169500000Y-86000000D03*
D18*
X169500000Y-87270000D03*
X169500000Y-88540000D03*
%TD*%
D17*
%TO.C,SRV4*%
X165500000Y-86000000D03*
D18*
X165500000Y-87270000D03*
X165500000Y-88540000D03*
%TD*%
D17*
%TO.C,SRV3*%
X124000000Y-86250000D03*
D18*
X124000000Y-87520000D03*
X124000000Y-88790000D03*
%TD*%
D17*
%TO.C,SRV2*%
X119850000Y-86250000D03*
D18*
X119850000Y-87520000D03*
X119850000Y-88790000D03*
%TD*%
D17*
%TO.C,SRV1*%
X115700000Y-86250000D03*
D18*
X115700000Y-87520000D03*
X115700000Y-88790000D03*
%TD*%
D19*
%TO.C,R10*%
X128500000Y-60000000D03*
D20*
X128500000Y-67620000D03*
%TD*%
D19*
%TO.C,R9*%
X161000000Y-59920000D03*
D20*
X161000000Y-65000000D03*
%TD*%
D19*
%TO.C,R8*%
X175920000Y-114000000D03*
D20*
X181000000Y-114000000D03*
%TD*%
D19*
%TO.C,R7*%
X167920000Y-114000000D03*
D20*
X173000000Y-114000000D03*
%TD*%
D19*
%TO.C,R6*%
X173500000Y-61000000D03*
D20*
X168420000Y-61000000D03*
%TD*%
D19*
%TO.C,R5*%
X176000000Y-61000000D03*
D20*
X181080000Y-61000000D03*
%TD*%
%TO.C,R4*%
X108420000Y-61000000D03*
D19*
X113500000Y-61000000D03*
%TD*%
%TO.C,R3*%
X116000000Y-61000000D03*
D20*
X121080000Y-61000000D03*
%TD*%
D19*
%TO.C,R2*%
X113000000Y-114000000D03*
D20*
X107920000Y-114000000D03*
%TD*%
D19*
%TO.C,R1*%
X116000000Y-114000000D03*
D20*
X121080000Y-114000000D03*
%TD*%
D21*
%TO.C,Vout*%
X182000000Y-89460000D03*
D22*
X182000000Y-85500000D03*
%TD*%
D23*
%TO.C,Vin*%
X107250000Y-85290000D03*
D22*
X107250000Y-89250000D03*
%TD*%
D14*
%TO.C,DRV4*%
X166000000Y-110000000D03*
X166000000Y-95000000D03*
X178500000Y-95000000D03*
D13*
X176000000Y-110000000D03*
X183500000Y-95000000D03*
X171000000Y-95000000D03*
X168500000Y-95000000D03*
X173500000Y-95000000D03*
X176000000Y-95000000D03*
X171000000Y-110000000D03*
X173500000Y-110000000D03*
X181000000Y-110000000D03*
X178500000Y-110000000D03*
X168500000Y-110000000D03*
X183500000Y-110000000D03*
X181000000Y-95000000D03*
%TD*%
%TO.C,DRV3*%
X181000000Y-65000000D03*
X183500000Y-80000000D03*
X168500000Y-80000000D03*
X178500000Y-80000000D03*
X181000000Y-80000000D03*
X173500000Y-80000000D03*
X171000000Y-80000000D03*
X176000000Y-65000000D03*
X173500000Y-65000000D03*
X168500000Y-65000000D03*
X171000000Y-65000000D03*
X183500000Y-65000000D03*
X176000000Y-80000000D03*
D14*
X178500000Y-65000000D03*
X166000000Y-65000000D03*
X166000000Y-80000000D03*
%TD*%
D13*
%TO.C,DRV2*%
X108500000Y-80000000D03*
X106000000Y-65000000D03*
X121000000Y-65000000D03*
X111000000Y-65000000D03*
X108500000Y-65000000D03*
X116000000Y-65000000D03*
X118500000Y-65000000D03*
X113500000Y-80000000D03*
X116000000Y-80000000D03*
X121000000Y-80000000D03*
X118500000Y-80000000D03*
X106000000Y-80000000D03*
X113500000Y-65000000D03*
D14*
X111000000Y-80000000D03*
X123500000Y-80000000D03*
X123500000Y-65000000D03*
%TD*%
D13*
%TO.C,DRV1*%
X108500000Y-110000000D03*
X106000000Y-95000000D03*
X121000000Y-95000000D03*
X111000000Y-95000000D03*
X108500000Y-95000000D03*
X116000000Y-95000000D03*
X118500000Y-95000000D03*
X113500000Y-110000000D03*
X116000000Y-110000000D03*
X121000000Y-110000000D03*
X118500000Y-110000000D03*
X106000000Y-110000000D03*
X113500000Y-95000000D03*
D14*
X111000000Y-110000000D03*
X123500000Y-110000000D03*
X123500000Y-95000000D03*
%TD*%
D24*
%TO.C,RED*%
X129735000Y-55000000D03*
D25*
X132275000Y-55000000D03*
%TD*%
D24*
%TO.C,GREEN*%
X160040000Y-55000000D03*
D25*
X157500000Y-55000000D03*
%TD*%
D26*
%TO.C,C1*%
X128500000Y-75000000D03*
X128500000Y-72500000D03*
%TD*%
D27*
%TO.C,U1*%
X133500000Y-60000000D03*
D28*
X133500000Y-62540000D03*
X133500000Y-65080000D03*
X133500000Y-67620000D03*
X133500000Y-70160000D03*
X133500000Y-72700000D03*
X133500000Y-75240000D03*
X133500000Y-77780000D03*
X133500000Y-80320000D03*
X133500000Y-82860000D03*
X133500000Y-85400000D03*
X133500000Y-87940000D03*
X133500000Y-90480000D03*
X133500000Y-93020000D03*
X133500000Y-95560000D03*
X133500000Y-98100000D03*
X133500000Y-100640000D03*
X133500000Y-103180000D03*
X133500000Y-105720000D03*
X133496320Y-108257280D03*
X133496320Y-110797280D03*
X133496320Y-113337280D03*
X156360000Y-113340000D03*
X156360000Y-110800000D03*
X156360000Y-108260000D03*
X156360000Y-105720000D03*
X156360000Y-103180000D03*
X156360000Y-100640000D03*
X156360000Y-98100000D03*
X156360000Y-95560000D03*
X156360000Y-93020000D03*
X156360000Y-90480000D03*
X156360000Y-87940000D03*
X156360000Y-85400000D03*
X156360000Y-82860000D03*
X156360000Y-80320000D03*
X156360000Y-77780000D03*
X156360000Y-75240000D03*
X156360000Y-72700000D03*
X156360000Y-70160000D03*
X156360000Y-67620000D03*
X156360000Y-65080000D03*
X156360000Y-62540000D03*
X156360000Y-60000000D03*
%TD*%
M02*
